<?xml version="1.0" standalone="no"?>
<svg version="1.0" xmlns="http://www.w3.org/2000/svg"
 width="100.000000pt" height="100.000000pt" viewBox="0 0 100.000000 100.000000"
 preserveAspectRatio="xMidYMid meet">
 path 

<g transform="translate(0.000000,100.000000) scale(0.100000,-0.100000)"
fill="#000000" stroke="none">
<path d="M204 802 c-100 -8 -134 -23 -160 -73 -22 -44 -37 -214 -29 -339 12
-202 34 -235 161 -252 44 -5 216 -8 384 -6 285 3 307 4 340 23 67 39 75 72 75
315 0 198 -2 218 -21 254 -38 74 -54 77 -376 81 -156 2 -324 0 -374 -3z m474
-317 c3 -2 -167 -98 -255 -144 l-23 -12 0 155 0 155 138 -76 c75 -42 138 -77
140 -78z"/>
</g>
</svg>
